HIERARCHY
ROOT Hips
{
	OFFSET -14.64140 90.27770 -84.91600
	CHANNELS 6 Xposition Yposition Zposition Zrotation Xrotation Yrotation
	JOINT Spine
	{
		OFFSET 0.00000 13.20850 -1.60436
		CHANNELS 3 Zrotation Xrotation Yrotation
		JOINT Spine1
		{
			OFFSET 0.00000 8.61716 0.00000
			CHANNELS 3 Zrotation Xrotation Yrotation
			JOINT Spine2
			{
				OFFSET 0.00000 8.61717 0.00000
				CHANNELS 3 Zrotation Xrotation Yrotation
				JOINT Spine3
				{
					OFFSET 0.00000 8.61717 0.00000
					CHANNELS 3 Zrotation Xrotation Yrotation
					JOINT Neck
					{
						OFFSET 0.00000 11.07920 1.10792
						CHANNELS 3 Zrotation Xrotation Yrotation
						JOINT Neck1
						{
							OFFSET 0.00000 7.08032 0.00000
							CHANNELS 3 Zrotation Xrotation Yrotation
							JOINT Head
							{
								OFFSET 0.00000 7.08031 0.00000
								CHANNELS 3 Zrotation Xrotation Yrotation
								End site
								{
									OFFSET 0.00000 0.00000 0.00000
								}
							}
						}
					}
					JOINT RightShoulder
					{
						OFFSET -0.01000 7.91373 5.19711
						CHANNELS 3 Zrotation Xrotation Yrotation
						JOINT RightArm
						{
							OFFSET -18.41580 0.00000 0.00000
							CHANNELS 3 Zrotation Xrotation Yrotation
							JOINT RightForeArm
							{
								OFFSET -29.11090 0.00000 0.00000
								CHANNELS 3 Zrotation Xrotation Yrotation
								JOINT RightHand
								{
									OFFSET -24.65040 0.00000 0.00000
									CHANNELS 3 Zrotation Xrotation Yrotation
									JOINT RightHandThumb1
									{
										OFFSET -5.35114 -0.85590 3.97906
										CHANNELS 3 Zrotation Xrotation Yrotation
										JOINT RightHandThumb2
										{
											OFFSET -4.52789 0.00000 0.00000
											CHANNELS 3 Zrotation Xrotation Yrotation
											JOINT RightHandThumb3
											{
												OFFSET -2.46976 0.00000 0.00000
												CHANNELS 3 Zrotation Xrotation Yrotation
												End site
												{
													OFFSET 0.00000 0.00000 0.00000
												}
											}
										}
									}
									JOINT RightHandIndex1
									{
										OFFSET -14.26970 0.00000 2.88139
										CHANNELS 3 Zrotation Xrotation Yrotation
										JOINT RightHandIndex2
										{
											OFFSET -5.48836 0.00000 0.00000
											CHANNELS 3 Zrotation Xrotation Yrotation
											JOINT RightHandIndex3
											{
												OFFSET -3.01859 0.00000 0.00000
												CHANNELS 3 Zrotation Xrotation Yrotation
												End site
												{
													OFFSET 0.00000 0.00000 0.00000
												}
											}
										}
									}
									JOINT RightHandMiddle1
									{
										OFFSET -14.26970 0.00000 -0.09147
										CHANNELS 3 Zrotation Xrotation Yrotation
										JOINT RightHandMiddle2
										{
											OFFSET -6.17441 0.00000 0.00000
											CHANNELS 3 Zrotation Xrotation Yrotation
											JOINT RightHandMiddle3
											{
												OFFSET -3.56743 0.00000 0.00000
												CHANNELS 3 Zrotation Xrotation Yrotation
												End site
												{
													OFFSET 0.00000 0.00000 0.00000
												}
											}
										}
									}
									JOINT RightHandRing1
									{
										OFFSET -12.69180 0.00000 -3.06433
										CHANNELS 3 Zrotation Xrotation Yrotation
										JOINT RightHandRing2
										{
											OFFSET -5.62556 0.00000 0.00000
											CHANNELS 3 Zrotation Xrotation Yrotation
											JOINT RightHandRing3
											{
												OFFSET -3.56744 0.00000 0.00000
												CHANNELS 3 Zrotation Xrotation Yrotation
												End site
												{
													OFFSET 0.00000 0.00000 0.00000
												}
											}
										}
									}
									JOINT RightHandPinky1
									{
										OFFSET -11.11390 0.00000 -6.03719
										CHANNELS 3 Zrotation Xrotation Yrotation
										JOINT RightHandPinky2
										{
											OFFSET -4.52789 0.00000 0.00000
											CHANNELS 3 Zrotation Xrotation Yrotation
											JOINT RightHandPinky3
											{
												OFFSET -2.46976 0.00000 0.00000
												CHANNELS 3 Zrotation Xrotation Yrotation
												End site
												{
													OFFSET 0.00000 0.00000 0.00000
												}
											}
										}
									}
								}
							}
						}
					}
					JOINT LeftShoulder
					{
						OFFSET 0.01000 7.91373 5.19711
						CHANNELS 3 Zrotation Xrotation Yrotation
						JOINT LeftArm
						{
							OFFSET 18.41580 0.00000 0.00000
							CHANNELS 3 Zrotation Xrotation Yrotation
							JOINT LeftForeArm
							{
								OFFSET 29.11090 0.00000 0.00000
								CHANNELS 3 Zrotation Xrotation Yrotation
								JOINT LeftHand
								{
									OFFSET 24.65040 0.00000 0.00000
									CHANNELS 3 Zrotation Xrotation Yrotation
									JOINT LeftHandThumb1
									{
										OFFSET 5.35114 -0.85590 3.97906
										CHANNELS 3 Zrotation Xrotation Yrotation
										JOINT LeftHandThumb2
										{
											OFFSET 4.52789 0.00000 0.00000
											CHANNELS 3 Zrotation Xrotation Yrotation
											JOINT LeftHandThumb3
											{
												OFFSET 2.46977 0.00000 0.00000
												CHANNELS 3 Zrotation Xrotation Yrotation
												End site
												{
													OFFSET 0.00000 0.00000 0.00000
												}
											}
										}
									}
									JOINT LeftHandIndex1
									{
										OFFSET 14.26970 0.00000 2.88139
										CHANNELS 3 Zrotation Xrotation Yrotation
										JOINT LeftHandIndex2
										{
											OFFSET 5.48836 0.00000 0.00000
											CHANNELS 3 Zrotation Xrotation Yrotation
											JOINT LeftHandIndex3
											{
												OFFSET 3.01859 0.00000 0.00000
												CHANNELS 3 Zrotation Xrotation Yrotation
												End site
												{
													OFFSET 0.00000 0.00000 0.00000
												}
											}
										}
									}
									JOINT LeftHandMiddle1
									{
										OFFSET 14.26970 0.00000 -0.09147
										CHANNELS 3 Zrotation Xrotation Yrotation
										JOINT LeftHandMiddle2
										{
											OFFSET 6.17440 0.00000 0.00000
											CHANNELS 3 Zrotation Xrotation Yrotation
											JOINT LeftHandMiddle3
											{
												OFFSET 3.56744 0.00000 0.00000
												CHANNELS 3 Zrotation Xrotation Yrotation
												End site
												{
													OFFSET 0.00000 0.00000 0.00000
												}
											}
										}
									}
									JOINT LeftHandRing1
									{
										OFFSET 12.69180 0.00000 -3.06433
										CHANNELS 3 Zrotation Xrotation Yrotation
										JOINT LeftHandRing2
										{
											OFFSET 5.62556 0.00000 0.00000
											CHANNELS 3 Zrotation Xrotation Yrotation
											JOINT LeftHandRing3
											{
												OFFSET 3.56744 0.00000 0.00000
												CHANNELS 3 Zrotation Xrotation Yrotation
												End site
												{
													OFFSET 0.00000 0.00000 0.00000
												}
											}
										}
									}
									JOINT LeftHandPinky1
									{
										OFFSET 11.11390 0.00000 -6.03719
										CHANNELS 3 Zrotation Xrotation Yrotation
										JOINT LeftHandPinky2
										{
											OFFSET 4.52789 0.00000 0.00000
											CHANNELS 3 Zrotation Xrotation Yrotation
											JOINT LeftHandPinky3
											{
												OFFSET 2.46976 0.00000 0.00000
												CHANNELS 3 Zrotation Xrotation Yrotation
												End site
												{
													OFFSET 0.00000 0.00000 0.00000
												}
											}
										}
									}
								}
							}
						}
					}
					JOINT pCube4
					{
						OFFSET 0.00000 10.91090 1.10792
						CHANNELS 3 Zrotation Xrotation Yrotation
						End site
						{
							OFFSET 0.00000 0.00000 0.00000
						}
					}
				}
			}
		}
	}
	JOINT RightUpLeg
	{
		OFFSET -9.98441 0.00000 0.00000
		CHANNELS 3 Zrotation Xrotation Yrotation
		JOINT RightLeg
		{
			OFFSET 0.00000 -42.11790 0.00000
			CHANNELS 3 Zrotation Xrotation Yrotation
			JOINT RightFoot
			{
				OFFSET 0.00000 -45.00020 -0.00001
				CHANNELS 3 Zrotation Xrotation Yrotation
				JOINT RightForeFoot
				{
					OFFSET 0.00000 -3.74820 0.00000
					CHANNELS 3 Zrotation Xrotation Yrotation
					JOINT RightToeBase
					{
						OFFSET 0.00000 0.06325 14.43120
						CHANNELS 3 Zrotation Xrotation Yrotation
						End site
						{
							OFFSET 0.00000 0.00000 0.00000
						}
					}
				}
			}
		}
	}
	JOINT LeftUpLeg
	{
		OFFSET 9.98441 0.00000 0.00000
		CHANNELS 3 Zrotation Xrotation Yrotation
		JOINT LeftLeg
		{
			OFFSET 0.00000 -42.11800 0.00000
			CHANNELS 3 Zrotation Xrotation Yrotation
			JOINT LeftFoot
			{
				OFFSET 0.00000 -45.00070 0.00000
				CHANNELS 3 Zrotation Xrotation Yrotation
				JOINT LeftForeFoot
				{
					OFFSET 0.00000 -3.74824 0.00000
					CHANNELS 3 Zrotation Xrotation Yrotation
					JOINT LeftToeBase
					{
						OFFSET 0.00000 0.06325 14.43110
						CHANNELS 3 Zrotation Xrotation Yrotation
						End site
						{
							OFFSET 0.00000 0.00000 0.00000
						}
					}
				}
			}
		}
	}
}
MOTION
Frames: 4
Frame Time: 0.050000
0.03222928536013477 0.016538909302366785 -0.01656655829347642 -0.048308519108865015 -0.00863172656403209 -0.03248486399180578 1.1830790624635612 3.570233083556715 -1.4452699909374964 -0.6419548349598571 3.7752590545135427 0.4234615369034751 -0.7481834771697908 -1.1267834414691567 1.5074119009279758 -0.5356165251574504 -0.8596675130802198 -0.3481813352063106 0.3773526473645926 11.803091398228332 -2.199809105842712 0.23581708944593463 -1.661594819142825 -6.917737030672638 1.1238666720209514 -17.988743869168474 -0.5743153976486061 -6.72551588470794 2.5504814588575124 -16.171680447538968 75.61676355409786 -23.152892043857232 19.217226116516102 25.35530669446622 -1.97493215906417 86.75178752157579 11.031012673262762 -0.3136234800817638 -1.4322760359070275 4.509014121381774 -0.0850310568329119 -1.614296186262192 0.03208582360632108 -0.015668519586311495 -56.279322793268136 -0.04439312028175651 0.02176169524860596 -56.2205829804344 -38.788607227069484 0.002049728996141029 -0.013258177084770305 0.004316852775732015 -0.04774463592517043 0.022924237898829955 0.005146133995951325 -0.031063774441399718 0.010019615997062446 -36.701644067603056 -0.02925508073814266 -0.005116283854381807 -0.012286287554308207 0.04862438416106347 -0.032421994300140755 -0.013444842201043474 0.03738598400978319 -0.04301090782276164 -19.758025358681582 0.005925392332710132 0.04989625880538078 -0.04948710013968831 -0.049752379973275224 -0.025765870311845438 -0.041770517549002316 -0.0013002374580198897 0.02377140548535925 24.05874236361156 -0.00641381287384891 -0.011752815252477507 28.876995119119062 0.0003809879935397926 0.007332991919789943 28.86033385423976 0.04024435716751503 0.008587364720736514 5.406006879065772 1.551605177565051 14.596922910025565 -72.9154615094868 -1.5169439965386142 -10.027760533203416 11.502897672822753 -10.098582872256982 -73.19429575479073 -9.403170986454809 11.541092959679219 -10.99543466055762 -0.5218265577657382 0.07317802227299822 -8.164206345866859 0.034343572502316976 -0.0009943976725316085 44.60320363127591 0.004781851740593833 0.020721496166086005 44.53975601315478 12.410466151154337 0.03278710334613321 -0.030890739247880362 0.032440575657242766 -0.018156218376629746 0.012766729725380293 -0.02951919741347372 -0.008585110178500851 -0.001962602197939204 11.118159133012698 -0.03552253144330709 0.02738833906135603 0.005878293745529064 0.0166445573222055 -0.046258237435882185 0.010471970787644875 0.041119557353995265 0.024323520301302547 4.802421976337385 0.025168532657922297 -0.042977991392649295 0.030873373289273108 -0.010918954280704846 -0.028827970892748248 0.0009909171507361317 -0.03914210904814551 -0.016287734637369513 -5.594370887440434 0.007513938341058342 0.010089533023821167 -6.748273693824542 -0.010788562585104227 -0.025583725530039597 -6.714433286525496 0.046109578643703034 0.04108153824903682 0.006793277513361884 -0.007397011186443391 -0.047590183893988086 8.091575432315018 3.4631009978819485 -19.198200443439816 -0.03295630240282972 10.426692335537009 0.05920906601651307 -5.637895996575409 -15.639548136409173 3.1795396355609578 -0.023077114137718305 0.034667808691101934 0.00029326755055654973 0.036223717065598994 4.712555574903211 0.020972166835055657 12.48396613879103 -8.257956715685781 6.927029050517666 -0.02235988044529087 46.347121922510325 0.02412591573812056 -4.27633935986417 -14.761286951961326 -3.8232671630906636 0.0002211860186099993 0.020645070866909806 0.0036108686492922894 0.03208896910388778 -10.704910974862425 0.0072864806668671124 
0.008802386026443657 0.0076494052373834755 0.021131956817384438 0.022639821304877676 0.02343932322941802 -0.005889487805440038 1.6529650494103771 3.6165324124034015 -1.4883816817080233 -0.7081025399595764 3.7631030966628485 0.4156375134040528 -0.8494344982908321 -1.1138112777739395 1.7522165272207806 -0.4727952679495487 -0.8108650352318266 -0.3282016433661723 0.49512508204446204 11.977112759566484 -2.2868382392947466 0.1847154855156253 -1.4909247104411754 -7.269133246732639 1.0701186040717419 -17.86301352596522 -0.6572876563635565 -7.7353708677219295 2.8090138578779453 -16.304414591263136 75.21394525490219 -23.019671453214308 21.800436356514112 23.0344621613664 -3.394414306536879 89.37105482825449 9.259121741139877 -0.230259965009451 -0.9696706323705966 4.524067942141886 -0.14026498798925616 -1.5930466222086912 0.004944157547088768 0.046314145259838395 -56.266933665673555 0.018890969636388054 -0.034125044904864066 -56.258681209657524 -38.78196335668896 -0.038668244592586574 -0.045939817678477456 0.03362128298273307 0.012803442598734189 0.01790004497320859 0.025963124457154627 -0.03479838425644017 0.02247105543386019 -36.65149320525399 -0.038078733498632944 0.005797923108589747 -0.021046687312486306 0.04443839443606973 -0.025975675487573527 -0.03361610138481141 0.03806647835596473 0.038620690180584054 -19.804464390442543 -0.019534534879332256 0.02043441293491505 -0.011968583414970708 0.0271913608587465 0.0033697494587070992 -0.019927898068981667 -0.0152498598356331 0.04049775485882871 24.008211673017456 -0.04285946737537852 -0.011821317301407787 28.871948507559953 -0.012758016524138339 -0.01145636433034653 28.874461803393046 -0.012997222408963742 -0.028780567705506025 5.773238140836315 1.6009218210556198 14.619853479057484 -71.93775031205453 0.6952962225133493 -9.51931625480374 14.513779371625912 -13.892986058280451 -78.16511183450375 -7.482062842727764 9.177636800907132 -10.51430254362203 -0.45621233478370726 0.07833023311747032 -8.115260639662887 -0.006598984456015027 0.0034903446015237243 44.52609516813163 0.028371677803475482 -0.021536463250834657 44.57359929564016 12.506005293424842 0.010112748455402927 -0.018594922598438663 0.026197498928377982 0.0238416133306489 -0.025601960827337115 -0.029070190107476305 0.04522718767389762 -0.028110675776108752 11.084564435664369 0.00918172746494139 -0.039657195667459295 -0.03229660098406715 -6.255614720527624e-05 0.02438224502010841 0.0441865449017921 -0.01063057173201743 0.04456234729212816 4.764930717874693 -0.047271858984112645 0.03476116697172738 0.044346873263984406 -0.0024341796833894608 0.009825839813951015 -0.018637932099663752 -0.04074852621709568 -0.010680060361036327 -5.557325111576982 -0.029083848653037384 0.012167778357043163 -6.734296888017537 -0.015785861867652042 0.0011460186438288526 -6.763650530186436 -0.040244025538440614 0.0342536272899279 0.0057954023367343226 -0.012198129071873945 -0.015088808765044212 8.06450068356445 3.4931441298375816 -19.26171355125763 -0.04257240895449745 10.35509661498488 0.030175286331857818 -5.628493927804163 -15.688796291559266 3.2014621994687937 -0.04464810355259325 -0.010354788289850116 0.015788291504941068 -0.03280612542598398 4.743944153042968 -0.01630643423812165 12.419482968105752 -8.2819976549835 6.880566761281157 0.013356684220125417 46.376949490889075 -0.00330510460000508 -4.2931261557863305 -14.794457735342807 -3.8481462161087734 -0.04852490206140418 -0.022617517211391096 0.03019116794119258 -0.03119569338832545 -10.790655467639725 0.02768120998441801 
0.04289126765350857 -0.019467404028381333 0.04723997428999935 -0.001745634224190855 0.03306810961694191 0.04963787242904956 1.9196081665067923 3.64215504188494 -1.5319049506026743 -0.7040049095713126 3.727122954267169 0.390587452605583 -0.8580213087107593 -1.1304582292213894 2.0144487916846345 -0.520040332561713 -0.7931849763956218 -0.27484218743568445 0.5807837345526233 12.264494470803951 -2.260641541185138 0.14578011359623408 -1.4671337323164577 -7.3309802070794845 1.143441273505199 -17.834130652996276 -0.6723818077967909 -8.711060259825748 3.0929196498008396 -16.465460716637445 74.97169503703257 -24.92109815451631 25.507874043279582 21.573667110217844 -4.686889338789837 91.24061470241422 7.832978191378789 -0.26562680451562404 -0.3486910186217001 4.515407993038445 -0.1467594888880157 -1.5902586060742943 0.008820434641934332 0.005844783327139653 -56.27740769986593 0.0377897048799712 -0.012308815382764338 -56.24113839917921 -38.7829792505614 0.010468411780286206 0.035714377173704126 -0.044089731948267694 0.04437850646962058 0.03591332667641987 -0.009676165222011122 0.009456716460818701 -0.03745579600033625 -36.712004014657936 -0.018249188837489588 -0.021323522222936066 -0.0029456352962793616 0.01103508268337554 -0.0409532488865747 -0.017954025125142978 0.030894519069545146 -0.005504089712127152 -19.787362055692093 -0.033651166332684286 0.0009047928814141837 -0.028706232187671304 -0.031463388361765314 0.021594822429568252 -0.03371640402259449 0.04690596115573556 0.013638061504728044 24.07011119075952 0.0041665391998183254 -0.0021282645253104453 28.881951350416372 -0.048749150286948734 -0.018164691046893104 28.896148744386394 -0.03360416312594233 -0.0396120240931909 6.161091673468143 1.6604060551364934 14.829015348174924 -71.39001705017964 0.1511275702471392 -9.50826325337313 15.412992248669825 -14.97622482441845 -81.01266757081756 -6.303208199988941 8.097552602460077 -10.596089651385844 -0.4556747647632179 0.0913763135576971 -8.16107273252663 0.004781114246286738 0.016348679226363506 44.5467335432555 0.019000504943164884 0.007877858401707422 44.53803158192432 12.505813172263336 0.045459439118562275 0.020626233854947624 0.013701458851519773 -0.0033282537734891956 -0.04386482538279313 -0.04518671207628489 -0.008558991278303636 -0.013415910392436455 11.121958899136693 0.035328333897348144 0.048288861117247235 0.01961041811975542 -0.015295747127251682 -0.04529404666182009 -0.022576580110219277 -0.035958249391911334 0.019947464701565977 4.753842952483463 0.02370293084615857 0.024382672035681074 -0.016955637042808547 0.029108797297041508 0.00033333463411752744 -0.022852825029417462 0.009052737942116838 0.04630085605502686 -5.625493014251358 -0.01101275880618295 -0.044166906306949014 -6.7593532823162095 -0.02249972356016613 -0.01585904176202056 -6.713206351135297 -0.04260384842369937 0.03583039950089704 0.03757355658888254 0.00832009917511899 0.0009043664995212631 8.040291374250648 3.528969717305558 -19.21772593494405 0.04981993466983973 10.400634233134607 -0.0008481397218439955 -5.598127917428013 -15.67066887176517 3.2050478854977578 -0.013225087176993241 -0.0051952136842679675 -0.03820923564709322 0.028999071553704077 4.70272202302322 -0.008300819062742461 12.497286238413434 -8.22446926957579 6.894463991653172 0.03382642418393163 46.399889002702814 0.006888899826050645 -4.318227883923024 -14.711601470122748 -3.8035117182872495 0.016760850687116045 0.028830962385936028 0.004366387570770885 -0.02356191315751067 -10.764548189212986 -0.027070946430549237 
-0.028943780102878697 0.015886186480694 -0.034092732564731304 -0.01580057808423926 -0.039033158393167754 -0.013677978516245325 2.129459903427502 3.725868861684828 -1.4896847079878015 -0.7384692970892747 3.7857145673983443 0.3915784728085781 -0.8965654645316465 -1.1895102617258193 2.3250589778063255 -0.6212013631164875 -0.8682950147115561 -0.15957524150598867 0.5751342791315053 12.556359439015203 -2.162804992306569 0.07145614147588454 -1.3480455490948495 -7.264574891391419 1.099988850668641 -17.798184608404895 -0.6139372629961042 -9.688720709923881 3.3097536400397365 -16.66305789508209 74.6667179879953 -27.686528002072993 29.033999546059988 20.60381402569112 -5.59387463706664 92.33897411714472 6.667038058463118 -0.2357602336724976 0.09034605308764472 4.541430000124916 -0.09624222100521235 -1.6090408313939732 -0.0050113864239589665 0.023570521388720105 -56.27517184400802 0.01812296800687761 -0.019145694016768012 -56.25839559885253 -38.81418932960087 -0.008016284752407898 -0.018153741165566284 -0.031252360939188754 -0.002482712818755898 -0.025570646118049517 0.015787666884278732 -0.026223671259015115 -0.04508788776743931 -36.73082187922594 -0.04167274903484663 0.03277551261290507 -0.015726566375681792 -0.02321337785002663 -0.001588111381167433 0.02288338812730612 -0.011198342833712967 -0.028648328422421047 -19.7556445170943 -0.031139985774412113 0.038623353725576806 -0.0007724508702168499 -0.012566467078074368 0.0372598158485524 0.033763308590153696 -0.03417904754937321 -0.03231867774966194 24.037390896980718 0.00712896972309742 0.0013511516913340498 28.88641308766936 0.04926162417864547 -0.00933346554401922 28.863667617271872 -0.009556326333413906 0.007824630967555115 6.715648094089518 1.7944481356379376 15.06569756005962 -71.30593499797087 -2.0907242319487778 -9.83136129494043 14.56283148855211 -14.268163877516415 -82.76483684012847 -5.4287662854004415 7.959915808269108 -11.057426950978735 -0.5154348373925628 0.028824186821145736 -8.098245191577051 -0.012064171833459396 -0.02871991103789539 44.5621560197154 0.03703570814913122 0.023029418913112297 44.581450915697395 12.463175013343433 -0.02373751748942561 -0.007381634764985619 -0.013997917492209374 0.036132435649128596 -0.0033674546183603475 -0.02214039985124582 0.023310394778746652 0.017816067987980636 11.11629295493207 -0.015930098398364782 -0.04451060158121236 -0.036816693282375905 0.021342851810199133 0.002502051611883941 -0.044454325034864066 -0.038621604169372895 0.008954463193917416 4.741228863020907 -0.002637081706385762 -0.03508541913201173 -0.007650158061325222 -0.028096293042382894 0.005341664854525347 0.024150376166435557 -0.007814857024671154 0.01600754919869003 -5.595481981179196 0.007383243971012386 0.019405077022612207 -6.752642825482893 -0.019791552928204195 -0.01720823964811772 -6.725307070822131 0.019278620243604428 0.01664845410192658 -0.042172326174974156 0.013195386724432377 -0.01834370226172619 8.023077784046496 3.4698919944235476 -19.23839396110512 -0.04767632852445485 10.376631291003285 0.0198485557128849 -5.641974977810797 -15.616074672506093 3.155871734442928 0.02427583978764541 0.04259367668911469 0.02404055052443295 0.003718071969892783 4.680098599026585 0.0049938640416492906 12.49710284483547 -8.239524678154849 6.85331823918481 0.011248723734030635 46.42102290773443 0.011382439216985486 -4.345044701640053 -14.766514158508894 -3.878624170539683 0.01033544731191993 0.023369072406028063 -0.035224020531900685 -0.03135860976002946 -10.7556076780522 -0.036282975269405125 
